<?xml version="1.0" encoding="utf-8"?>

<!-- Uploaded to: SVG Repo, www.svgrepo.com, Generator: SVG Repo Mixer Tools -->
<svg width="64px" height="64px" viewBox="-5 -5 52 52" xmlns="http://www.w3.org/2000/svg">

<g fill="none" fill-rule="evenodd" stroke="black" stroke-width= "2.2" stroke-linecap="round" stroke-linejoin="round" transform="translate(3 3)">

<path d="m2.5.5h10c1.1045695 0 2 .8954305 2 2v10c0 1.1045695-.8954305 2-2 2h-10c-1.1045695 0-2-.8954305-2-2v-10c0-1.1045695.8954305-2 2-2z"/>

<g transform="translate(21, 0)">
  <path d="m2.5.5h10c1.1045695 0 2 .8954305 2 2v10c0 1.1045695-.8954305 2-2 2h-10c-1.1045695 0-2-.8954305-2-2v-10c0-1.1045695.8954305-2 2-2z"/>
</g>

<g transform="translate(0, 21)">
  <path d="m2.5.5h10c1.1045695 0 2 .8954305 2 2v10c0 1.1045695-.8954305 2-2 2h-10c-1.1045695 0-2-.8954305-2-2v-10c0-1.1045695.8954305-2 2-2z"/>
</g>

<g transform="translate(21, 21)">
  <path d="m2.5.5h10c1.1045695 0 2 .8954305 2 2v10c0 1.1045695-.8954305 2-2 2h-10c-1.1045695 0-2-.8954305-2-2v-10c0-1.1045695.8954305-2 2-2z"/>
</g>

</g>

</svg>